<svg id="x" xmlns="http://www.w3.org/2000/svg" preserveAspectRatio="xMinYMin meet" viewBox="0 0 30 30"><path fill="#638596" d="M0 0h30v30H0z"/><path fill="#EAD9D9" d="M22 10v12h-2v2h-1v1H5v-1h1v-1h1v-1h1v-1h1v-1h2v-1h2v-9h1V9h2V8h-1V7h3v1h1v1h2v1h1z"/><path fill="#000" d="M4 24v2h16v-2h-1v1H5v-1H4zM6 23H5v1h1v-1zM7 22H6v1h1v-1zM8 21H7v1h1v-1zM9 20H8v1h1v-1zM11 19H9v1h2v-1zM12 10v8h-1v1h2v-9h-1zM14 10V9h-1v1h1zM15 8V7h-1v2h2V8h-1zM18 6h-3v1h3V6zM19 7h-1v1h1V7zM21 8h-2v1h2V8zM23 22V9h-2v1h1v12h1zM21 24v-1h1v-1h-2v2h1zM15 13h1v1h-1v-1zM20 13h1v1h-1v-1zM18 15h2v1h-2v-1zM17 18h3v1h-3v-1z"/><path fill="#000" fill-opacity=".2" d="M17 13h-1v1h1v-1zM22 13h-1v1h1v-1z"/><path fill="#000" fill-opacity=".4" d="M17 12h-2v1h2v-1zM20 12v1h2v-1h-2zM22 21h-9v1h1v1h6v-1h2v-1zM12 19h-1v6h2v-1h-1v-5zM10 25v-5H9v5h1zM8 25v-3H7v3h1zM6 24H5v1h1v-1z"/><path fill="#000" d="M13 12h11v2h-1v1h-2v-1h-1v-1h-2v1h-1v1h-2v-1h-1v-1h-1v-1z"/><path fill="#515151" d="M13 6h9v4h-9V6z"/><path stroke="#000" d="M12 10.5h12.5V9m-.5-.5h-8m0 1h-1m8-2h-1m0-1h-1m0-1h-7m0 1h-1m-.5.5v3"/><path stroke="#353535" d="M24 9.5h-8m-1-3h-1m0 1h-1"/><path stroke="#000" d="M20 18.5h1m0 1h1m0 1h1m0 1h1.5v-2h4V22m-1 0v1m-.5.5h-4m0-1h-1m0-1h-1m0-1h-1m0-1h-1"/><path stroke="#855114" d="M20 19.5h1m0 1h1m0 1h1m0 1h3m-1-2h3m-2 1h1"/><path stroke="#683C08" d="M25 21.5h1m0 1h1m0-1h1"/><path stroke="#fff" stroke-opacity=".4" d="M26.5 12v1.5m0 0H25m1.5 0H28M26.5 15v1m0 1v1"/><style>#x{shape-rendering: crispedges;}</style></svg>