<svg width="190" height="190" viewBox="0 0 190 190" xmlns="http://www.w3.org/2000/svg" shape-rendering="crispEdges"><rect width="100%" height="100%" fill="#e0a4ad" /><rect width="90" height="10" x="50" y="100" fill="#c67754" /><rect width="90" height="10" x="50" y="110" fill="#c67754" /><rect width="20" height="10" x="50" y="120" fill="#c67754" /><rect width="60" height="10" x="70" y="120" fill="#8f4c2d" /><rect width="10" height="10" x="130" y="120" fill="#c67754" /><rect width="10" height="10" x="50" y="130" fill="#c67754" /><rect width="80" height="10" x="60" y="130" fill="#8f4c2d" /><rect width="10" height="10" x="50" y="140" fill="#c67754" /><rect width="80" height="10" x="60" y="140" fill="#8f4c2d" /><rect width="10" height="10" x="60" y="150" fill="#c67754" /><rect width="60" height="10" x="70" y="150" fill="#8f4c2d" /><rect width="90" height="10" x="50" y="160" fill="#c67754" /><rect width="110" height="10" x="40" y="170" fill="#c67754" /><rect width="130" height="10" x="30" y="180" fill="#c67754" /><rect width="20" height="10" x="50" y="160" fill="#7300b2" /><rect width="20" height="10" x="120" y="160" fill="#7300b2" /><rect width="110" height="10" x="40" y="170" fill="#7300b2" /><rect width="130" height="10" x="30" y="180" fill="#7300b2" /><rect width="10" height="10" x="70" y="110" fill="#ffffff" /><rect width="10" height="10" x="80" y="110" fill="#000000" /><rect width="10" height="10" x="110" y="110" fill="#000000" /><rect width="10" height="10" x="120" y="110" fill="#ffffff" /><rect width="10" height="10" x="50" y="100" fill="#e9e9e9" /><rect width="10" height="10" x="160" y="100" fill="#eaeaea" /><rect width="10" height="10" x="50" y="110" fill="#e9e9e9" /><rect width="10" height="10" x="50" y="120" fill="#e9e9e9" /><rect width="50" height="10" x="80" y="120" fill="#e9e9e9" /><rect width="10" height="10" x="150" y="120" fill="#eaeaea" /><rect width="10" height="10" x="50" y="130" fill="#e9e9e9" /><rect width="10" height="10" x="70" y="130" fill="#e9e9e9" /><rect width="30" height="10" x="80" y="130" fill="#000108" /><rect width="30" height="10" x="110" y="130" fill="#6e3c0e" /><rect width="10" height="10" x="140" y="130" fill="#ff1f00" /><rect width="90" height="10" x="50" y="140" fill="#e9e9e9" /><rect width="70" height="10" x="60" y="150" fill="#e9e9e9" /><rect width="60" height="10" x="70" y="160" fill="#e9e9e9" /><rect width="60" height="10" x="70" y="170" fill="#e9e9e9" /><rect width="40" height="10" x="80" y="180" fill="#e9e9e9" /><rect width="20" height="10" x="50" y="100" fill="#672314" /><rect width="10" height="10" x="100" y="100" fill="#672314" /><rect width="10" height="10" x="130" y="100" fill="#672314" /><rect width="10" height="10" x="50" y="110" fill="#672314" /><rect width="20" height="10" x="10" y="40" fill="#43ffff" /><rect width="20" height="10" x="0" y="50" fill="#43ffff" /><rect width="10" height="10" x="20" y="50" fill="#ffffff" /><rect width="10" height="10" x="30" y="50" fill="#43ffff" /><rect width="40" height="10" x="0" y="60" fill="#43ffff" /><rect width="10" height="10" x="0" y="70" fill="#662200" /><rect width="20" height="10" x="10" y="70" fill="#43ffff" /><rect width="10" height="10" x="30" y="70" fill="#662200" /><rect width="20" height="10" x="10" y="80" fill="#662200" /><rect width="20" height="10" x="10" y="90" fill="#662200" /><rect width="20" height="10" x="10" y="100" fill="#662200" /><rect width="20" height="10" x="10" y="110" fill="#662200" /><rect width="20" height="10" x="10" y="120" fill="#662200" /><rect width="20" height="10" x="10" y="130" fill="#662200" /><rect width="20" height="10" x="10" y="140" fill="#662200" /><rect width="20" height="10" x="10" y="150" fill="#662200" /><rect width="20" height="10" x="10" y="160" fill="#662200" /><rect width="20" height="10" x="10" y="170" fill="#662200" /><rect width="20" height="10" x="10" y="180" fill="#662200" /><rect width="40" height="10" x="60" y="20" fill="#611dae" /><rect width="20" height="10" x="50" y="30" fill="#611dae" /><rect width="20" height="10" x="70" y="30" fill="#6117ad" /><rect width="20" height="10" x="90" y="30" fill="#611dae" /><rect width="10" height="10" x="50" y="40" fill="#611dae" /><rect width="40" height="10" x="70" y="40" fill="#6117ad" /><rect width="50" height="10" x="70" y="50" fill="#6117ad" /><rect width="70" height="10" x="60" y="60" fill="#6117ad" /><rect width="70" height="10" x="60" y="70" fill="#6117ad" /><rect width="90" height="10" x="50" y="80" fill="#f7bc07" /><rect width="110" height="10" x="40" y="90" fill="#6117ad" /></svg>